<svg width="976" height="91" viewBox="0 0 976 91" fill="none" xmlns="http://www.w3.org/2000/svg">
<path d="M1.736 18H12.92V16.464H3.512V1.2H1.736V18ZM26.3373 11.688C26.3373 7.896 23.7693 5.28 20.2173 5.28C16.6653 5.28 14.0493 7.944 14.0493 11.688C14.0493 15.432 16.7373 18.12 20.6733 18.12C22.6653 18.12 24.4173 17.4 25.5453 16.056L24.5853 14.952C23.6253 16.056 22.2573 16.608 20.7213 16.608C17.9613 16.608 15.9453 14.856 15.7533 12.216H26.3133C26.3133 12.024 26.3373 11.832 26.3373 11.688ZM20.2173 6.744C22.6893 6.744 24.4893 8.472 24.7053 10.944H15.7533C15.9693 8.472 17.7693 6.744 20.2173 6.744ZM33.1897 18.12C36.4777 18.12 38.3977 16.704 38.3977 14.52C38.3977 9.672 30.2137 12.24 30.2137 8.832C30.2137 7.632 31.2217 6.744 33.5017 6.744C34.7977 6.744 36.1177 7.056 37.2217 7.824L37.9657 6.456C36.9097 5.736 35.1337 5.28 33.5017 5.28C30.2857 5.28 28.5097 6.816 28.5097 8.88C28.5097 13.872 36.6937 11.28 36.6937 14.568C36.6937 15.816 35.7097 16.632 33.3097 16.632C31.5337 16.632 29.8297 16.008 28.8217 15.216L28.0537 16.56C29.0857 17.448 31.1017 18.12 33.1897 18.12ZM52.2451 5.28C50.2531 5.28 48.3811 5.904 47.1091 6.984L47.8771 8.256C48.9091 7.344 50.4451 6.768 52.0771 6.768C54.4291 6.768 55.6531 7.944 55.6531 10.104V10.872H51.6451C48.0211 10.872 46.7731 12.504 46.7731 14.448C46.7731 16.632 48.5251 18.12 51.3811 18.12C53.4691 18.12 54.9571 17.328 55.7251 16.032V18H57.3571V10.176C57.3571 6.912 55.5091 5.28 52.2451 5.28ZM51.6451 16.776C49.6291 16.776 48.4531 15.864 48.4531 14.4C48.4531 13.104 49.2451 12.144 51.6931 12.144H55.6531V14.208C54.9811 15.864 53.5651 16.776 51.6451 16.776ZM68.4174 5.28C66.2334 5.28 64.5294 6.168 63.6174 7.704V5.376H61.9854V18H63.6894V11.376C63.6894 8.496 65.3934 6.816 68.1054 6.816C70.5054 6.816 71.8974 8.184 71.8974 10.848V18H73.6014V10.68C73.6014 7.056 71.4894 5.28 68.4174 5.28ZM84.6596 5.28C82.4756 5.28 80.7716 6.168 79.8596 7.704V5.376H78.2276V18H79.9316V11.376C79.9316 8.496 81.6356 6.816 84.3476 6.816C86.7476 6.816 88.1396 8.184 88.1396 10.848V18H89.8436V10.68C89.8436 7.056 87.7316 5.28 84.6596 5.28ZM99.6766 18.12C103.373 18.12 106.085 15.432 106.085 11.688C106.085 7.944 103.373 5.28 99.6766 5.28C95.9806 5.28 93.2446 7.944 93.2446 11.688C93.2446 15.432 95.9806 18.12 99.6766 18.12ZM99.6766 16.608C96.9886 16.608 94.9726 14.64 94.9726 11.688C94.9726 8.736 96.9886 6.768 99.6766 6.768C102.365 6.768 104.357 8.736 104.357 11.688C104.357 14.64 102.365 16.608 99.6766 16.608ZM115.996 5.28C113.812 5.28 112.108 6.168 111.196 7.704V5.376H109.564V18H111.268V11.376C111.268 8.496 112.972 6.816 115.684 6.816C118.084 6.816 119.476 8.184 119.476 10.848V18H121.18V10.68C121.18 7.056 119.068 5.28 115.996 5.28ZM131.085 18.12C133.221 18.12 135.021 17.256 136.029 15.624L134.757 14.76C133.893 16.032 132.549 16.608 131.085 16.608C128.325 16.608 126.309 14.664 126.309 11.688C126.309 8.736 128.325 6.768 131.085 6.768C132.549 6.768 133.893 7.368 134.757 8.64L136.029 7.776C135.021 6.12 133.221 5.28 131.085 5.28C127.317 5.28 124.581 7.92 124.581 11.688C124.581 15.456 127.317 18.12 131.085 18.12ZM150.181 11.688C150.181 7.896 147.613 5.28 144.061 5.28C140.509 5.28 137.893 7.944 137.893 11.688C137.893 15.432 140.581 18.12 144.517 18.12C146.509 18.12 148.261 17.4 149.389 16.056L148.429 14.952C147.469 16.056 146.101 16.608 144.565 16.608C141.805 16.608 139.789 14.856 139.597 12.216H150.157C150.157 12.024 150.181 11.832 150.181 11.688ZM144.061 6.744C146.533 6.744 148.333 8.472 148.549 10.944H139.597C139.813 8.472 141.613 6.744 144.061 6.744ZM157.033 18.12C160.321 18.12 162.241 16.704 162.241 14.52C162.241 9.672 154.057 12.24 154.057 8.832C154.057 7.632 155.065 6.744 157.345 6.744C158.641 6.744 159.961 7.056 161.065 7.824L161.809 6.456C160.753 5.736 158.977 5.28 157.345 5.28C154.129 5.28 152.353 6.816 152.353 8.88C152.353 13.872 160.537 11.28 160.537 14.568C160.537 15.816 159.553 16.632 157.153 16.632C155.377 16.632 153.673 16.008 152.665 15.216L151.897 16.56C152.929 17.448 154.945 18.12 157.033 18.12ZM178.177 5.28C176.089 5.28 174.337 6.192 173.305 7.872V5.376H171.673V22.656H173.377V15.624C174.433 17.256 176.161 18.12 178.177 18.12C181.777 18.12 184.465 15.528 184.465 11.688C184.465 7.872 181.777 5.28 178.177 5.28ZM178.057 16.608C175.369 16.608 173.353 14.64 173.353 11.688C173.353 8.76 175.369 6.768 178.057 6.768C180.721 6.768 182.761 8.76 182.761 11.688C182.761 14.64 180.721 16.608 178.057 16.608ZM193.099 18.12C196.795 18.12 199.507 15.432 199.507 11.688C199.507 7.944 196.795 5.28 193.099 5.28C189.403 5.28 186.667 7.944 186.667 11.688C186.667 15.432 189.403 18.12 193.099 18.12ZM193.099 16.608C190.411 16.608 188.395 14.64 188.395 11.688C188.395 8.736 190.411 6.768 193.099 6.768C195.787 6.768 197.779 8.736 197.779 11.688C197.779 14.64 195.787 16.608 193.099 16.608ZM206.369 18.12C209.657 18.12 211.577 16.704 211.577 14.52C211.577 9.672 203.393 12.24 203.393 8.832C203.393 7.632 204.401 6.744 206.681 6.744C207.977 6.744 209.297 7.056 210.401 7.824L211.145 6.456C210.089 5.736 208.313 5.28 206.681 5.28C203.465 5.28 201.689 6.816 201.689 8.88C201.689 13.872 209.873 11.28 209.873 14.568C209.873 15.816 208.889 16.632 206.489 16.632C204.713 16.632 203.009 16.008 202.001 15.216L201.233 16.56C202.265 17.448 204.281 18.12 206.369 18.12ZM220.776 16.008C220.296 16.44 219.6 16.656 218.904 16.656C217.488 16.656 216.72 15.84 216.72 14.352V6.816H220.56V5.376H216.72V2.616H215.016V5.376H212.76V6.816H215.016V14.448C215.016 16.776 216.336 18.12 218.712 18.12C219.696 18.12 220.704 17.832 221.376 17.232L220.776 16.008ZM232.936 0.456H230.656L227.368 3.432H229.048L232.936 0.456ZM235.048 11.688C235.048 7.896 232.48 5.28 228.928 5.28C225.376 5.28 222.76 7.944 222.76 11.688C222.76 15.432 225.448 18.12 229.384 18.12C231.376 18.12 233.128 17.4 234.256 16.056L233.296 14.952C232.336 16.056 230.968 16.608 229.432 16.608C226.672 16.608 224.656 14.856 224.464 12.216H235.024C235.024 12.024 235.048 11.832 235.048 11.688ZM228.928 6.744C231.4 6.744 233.2 8.472 233.416 10.944H224.464C224.68 8.472 226.48 6.744 228.928 6.744ZM249.533 11.688C249.533 7.896 246.965 5.28 243.413 5.28C239.861 5.28 237.245 7.944 237.245 11.688C237.245 15.432 239.933 18.12 243.869 18.12C245.861 18.12 247.613 17.4 248.741 16.056L247.781 14.952C246.821 16.056 245.453 16.608 243.917 16.608C241.157 16.608 239.141 14.856 238.949 12.216H249.509C249.509 12.024 249.533 11.832 249.533 11.688ZM243.413 6.744C245.885 6.744 247.685 8.472 247.901 10.944H238.949C239.165 8.472 240.965 6.744 243.413 6.744ZM256.385 18.12C259.673 18.12 261.593 16.704 261.593 14.52C261.593 9.672 253.409 12.24 253.409 8.832C253.409 7.632 254.417 6.744 256.697 6.744C257.993 6.744 259.313 7.056 260.417 7.824L261.161 6.456C260.105 5.736 258.329 5.28 256.697 5.28C253.481 5.28 251.705 6.816 251.705 8.88C251.705 13.872 259.889 11.28 259.889 14.568C259.889 15.816 258.905 16.632 256.505 16.632C254.729 16.632 253.025 16.008 252.017 15.216L251.249 16.56C252.281 17.448 254.297 18.12 256.385 18.12ZM274.408 18.12C277.696 18.12 279.616 16.704 279.616 14.52C279.616 9.672 271.432 12.24 271.432 8.832C271.432 7.632 272.44 6.744 274.72 6.744C276.016 6.744 277.336 7.056 278.44 7.824L279.184 6.456C278.128 5.736 276.352 5.28 274.72 5.28C271.504 5.28 269.728 6.816 269.728 8.88C269.728 13.872 277.912 11.28 277.912 14.568C277.912 15.816 276.928 16.632 274.528 16.632C272.752 16.632 271.048 16.008 270.04 15.216L269.272 16.56C270.304 17.448 272.32 18.12 274.408 18.12ZM292.439 5.376V12C292.439 14.88 290.783 16.584 288.143 16.584C285.743 16.584 284.351 15.216 284.351 12.528V5.376H282.647V12.696C282.647 16.32 284.759 18.12 287.975 18.12C289.991 18.12 291.623 17.232 292.511 15.696V18H294.143V5.376H292.439ZM300.547 7.848V5.376H298.915V18H300.619V11.568C300.619 8.592 302.227 6.912 304.867 6.912C304.987 6.912 305.131 6.936 305.275 6.936V5.28C302.947 5.28 301.339 6.168 300.547 7.848ZM327.261 18H329.373L321.597 8.808L328.869 1.2H326.829L316.965 11.352V1.2H315.189V18H316.965V13.584L320.397 10.104L327.261 18ZM335.98 5.28C333.988 5.28 332.116 5.904 330.844 6.984L331.612 8.256C332.644 7.344 334.18 6.768 335.812 6.768C338.164 6.768 339.388 7.944 339.388 10.104V10.872H335.38C331.756 10.872 330.508 12.504 330.508 14.448C330.508 16.632 332.26 18.12 335.116 18.12C337.204 18.12 338.692 17.328 339.46 16.032V18H341.092V10.176C341.092 6.912 339.244 5.28 335.98 5.28ZM335.38 16.776C333.364 16.776 332.188 15.864 332.188 14.4C332.188 13.104 332.98 12.144 335.428 12.144H339.388V14.208C338.716 15.864 337.3 16.776 335.38 16.776ZM349.104 18.12C352.392 18.12 354.312 16.704 354.312 14.52C354.312 9.672 346.128 12.24 346.128 8.832C346.128 7.632 347.136 6.744 349.416 6.744C350.712 6.744 352.032 7.056 353.136 7.824L353.88 6.456C352.824 5.736 351.048 5.28 349.416 5.28C346.2 5.28 344.424 6.816 344.424 8.88C344.424 13.872 352.608 11.28 352.608 14.568C352.608 15.816 351.624 16.632 349.224 16.632C347.448 16.632 345.744 16.008 344.736 15.216L343.968 16.56C345 17.448 347.016 18.12 349.104 18.12ZM361.878 5.28C359.886 5.28 358.014 5.904 356.742 6.984L357.51 8.256C358.542 7.344 360.078 6.768 361.71 6.768C364.062 6.768 365.286 7.944 365.286 10.104V10.872H361.278C357.654 10.872 356.406 12.504 356.406 14.448C356.406 16.632 358.158 18.12 361.014 18.12C363.102 18.12 364.59 17.328 365.358 16.032V18H366.99V10.176C366.99 6.912 365.142 5.28 361.878 5.28ZM361.278 16.776C359.262 16.776 358.086 15.864 358.086 14.4C358.086 13.104 358.878 12.144 361.326 12.144H365.286V14.208C364.614 15.864 363.198 16.776 361.278 16.776ZM387.955 5.376V7.8C386.899 6.144 385.075 5.28 382.963 5.28C379.363 5.28 376.627 7.752 376.627 11.376C376.627 15 379.363 17.52 382.963 17.52C385.027 17.52 386.827 16.68 387.883 15.072V16.68C387.883 19.8 386.419 21.264 383.227 21.264C381.283 21.264 379.459 20.616 378.259 19.536L377.395 20.832C378.715 22.08 380.971 22.776 383.275 22.776C387.451 22.776 389.587 20.808 389.587 16.464V5.376H387.955ZM383.131 16.008C380.347 16.008 378.355 14.112 378.355 11.376C378.355 8.64 380.347 6.768 383.131 6.768C385.915 6.768 387.931 8.64 387.931 11.376C387.931 14.112 385.915 16.008 383.131 16.008ZM398.769 5.28C396.777 5.28 394.905 5.904 393.633 6.984L394.401 8.256C395.433 7.344 396.969 6.768 398.601 6.768C400.953 6.768 402.177 7.944 402.177 10.104V10.872H398.169C394.545 10.872 393.297 12.504 393.297 14.448C393.297 16.632 395.049 18.12 397.905 18.12C399.993 18.12 401.481 17.328 402.249 16.032V18H403.881V10.176C403.881 6.912 402.033 5.28 398.769 5.28ZM398.169 16.776C396.153 16.776 394.977 15.864 394.977 14.4C394.977 13.104 395.769 12.144 398.217 12.144H402.177V14.208C401.505 15.864 400.089 16.776 398.169 16.776ZM410.141 7.848V5.376H408.509V18H410.213V11.568C410.213 8.592 411.821 6.912 414.461 6.912C414.581 6.912 414.725 6.936 414.869 6.936V5.28C412.541 5.28 410.933 6.168 410.141 7.848ZM422.347 5.28C420.355 5.28 418.483 5.904 417.211 6.984L417.979 8.256C419.011 7.344 420.547 6.768 422.179 6.768C424.531 6.768 425.755 7.944 425.755 10.104V10.872H421.747C418.123 10.872 416.875 12.504 416.875 14.448C416.875 16.632 418.627 18.12 421.483 18.12C423.571 18.12 425.059 17.328 425.827 16.032V18H427.459V10.176C427.459 6.912 425.611 5.28 422.347 5.28ZM421.747 16.776C419.731 16.776 418.555 15.864 418.555 14.4C418.555 13.104 419.347 12.144 421.795 12.144H425.755V14.208C425.083 15.864 423.667 16.776 421.747 16.776ZM438.519 5.28C436.335 5.28 434.631 6.168 433.719 7.704V5.376H432.087V18H433.791V11.376C433.791 8.496 435.495 6.816 438.207 6.816C440.607 6.816 441.999 8.184 441.999 10.848V18H443.703V10.68C443.703 7.056 441.591 5.28 438.519 5.28ZM454.377 16.008C453.897 16.44 453.201 16.656 452.505 16.656C451.089 16.656 450.321 15.84 450.321 14.352V6.816H454.161V5.376H450.321V2.616H448.617V5.376H446.361V6.816H448.617V14.448C448.617 16.776 449.937 18.12 452.313 18.12C453.297 18.12 454.305 17.832 454.977 17.232L454.377 16.008ZM458.943 2.616C459.663 2.616 460.191 2.064 460.191 1.368C460.191 0.719999 459.639 0.191999 458.943 0.191999C458.247 0.191999 457.695 0.743999 457.695 1.392C457.695 2.064 458.247 2.616 458.943 2.616ZM458.079 18H459.783V5.376H458.079V18ZM467.908 18.12C471.196 18.12 473.116 16.704 473.116 14.52C473.116 9.672 464.932 12.24 464.932 8.832C464.932 7.632 465.94 6.744 468.22 6.744C469.516 6.744 470.836 7.056 471.94 7.824L472.684 6.456C471.628 5.736 469.852 5.28 468.22 5.28C465.004 5.28 463.228 6.816 463.228 8.88C463.228 13.872 471.412 11.28 471.412 14.568C471.412 15.816 470.428 16.632 468.028 16.632C466.252 16.632 464.548 16.008 463.54 15.216L462.772 16.56C463.804 17.448 465.82 18.12 467.908 18.12ZM479.651 18.12C482.939 18.12 484.859 16.704 484.859 14.52C484.859 9.672 476.675 12.24 476.675 8.832C476.675 7.632 477.683 6.744 479.963 6.744C481.259 6.744 482.579 7.056 483.683 7.824L484.427 6.456C483.371 5.736 481.595 5.28 479.963 5.28C476.747 5.28 474.971 6.816 474.971 8.88C474.971 13.872 483.155 11.28 483.155 14.568C483.155 15.816 482.171 16.632 479.771 16.632C477.995 16.632 476.291 16.008 475.283 15.216L474.515 16.56C475.547 17.448 477.563 18.12 479.651 18.12ZM499.025 11.688C499.025 7.896 496.457 5.28 492.905 5.28C489.353 5.28 486.737 7.944 486.737 11.688C486.737 15.432 489.425 18.12 493.361 18.12C495.353 18.12 497.105 17.4 498.233 16.056L497.273 14.952C496.313 16.056 494.945 16.608 493.409 16.608C490.649 16.608 488.633 14.856 488.441 12.216H499.001C499.001 12.024 499.025 11.832 499.025 11.688ZM492.905 6.744C495.377 6.744 497.177 8.472 497.393 10.944H488.441C488.657 8.472 490.457 6.744 492.905 6.744ZM508.925 5.28C506.741 5.28 505.037 6.168 504.125 7.704V5.376H502.493V18H504.197V11.376C504.197 8.496 505.901 6.816 508.613 6.816C511.013 6.816 512.405 8.184 512.405 10.848V18H514.109V10.68C514.109 7.056 511.997 5.28 508.925 5.28ZM524.783 16.008C524.303 16.44 523.607 16.656 522.911 16.656C521.495 16.656 520.727 15.84 520.727 14.352V6.816H524.567V5.376H520.727V2.616H519.023V5.376H516.767V6.816H519.023V14.448C519.023 16.776 520.343 18.12 522.719 18.12C523.703 18.12 524.711 17.832 525.383 17.232L524.783 16.008ZM544.439 5.376V12C544.439 14.88 542.783 16.584 540.143 16.584C537.743 16.584 536.351 15.216 536.351 12.528V5.376H534.647V12.696C534.647 16.32 536.759 18.12 539.975 18.12C541.991 18.12 543.623 17.232 544.511 15.696V18H546.143V5.376H544.439ZM557.347 5.28C555.163 5.28 553.459 6.168 552.547 7.704V5.376H550.915V18H552.619V11.376C552.619 8.496 554.323 6.816 557.035 6.816C559.435 6.816 560.827 8.184 560.827 10.848V18H562.531V10.68C562.531 7.056 560.419 5.28 557.347 5.28ZM578.22 11.688C578.22 7.896 575.652 5.28 572.1 5.28C568.548 5.28 565.932 7.944 565.932 11.688C565.932 15.432 568.62 18.12 572.556 18.12C574.548 18.12 576.3 17.4 577.428 16.056L576.468 14.952C575.508 16.056 574.14 16.608 572.604 16.608C569.844 16.608 567.828 14.856 567.636 12.216H578.196C578.196 12.024 578.22 11.832 578.22 11.688ZM572.1 6.744C574.572 6.744 576.372 8.472 576.588 10.944H567.636C567.852 8.472 569.652 6.744 572.1 6.744ZM588.258 3.816V5.376H586.002V6.816H588.258V18H589.962V6.816H593.802V5.376H589.914V3.888C589.914 2.328 590.682 1.512 592.146 1.512C592.866 1.512 593.538 1.728 594.018 2.136L594.594 0.863999C593.97 0.335999 593.01 0.0719991 592.074 0.0719991C589.602 0.0719991 588.258 1.56 588.258 3.816ZM598.89 0.191999C598.194 0.191999 597.642 0.743999 597.642 1.392C597.642 2.064 598.194 2.616 598.89 2.616C599.61 2.616 600.138 2.064 600.138 1.368C600.138 0.719999 599.586 0.191999 598.89 0.191999ZM598.026 18H599.73V5.376H598.026V18ZM608.909 5.28C606.917 5.28 605.045 5.904 603.773 6.984L604.541 8.256C605.573 7.344 607.109 6.768 608.741 6.768C611.093 6.768 612.317 7.944 612.317 10.104V10.872H608.309C604.685 10.872 603.437 12.504 603.437 14.448C603.437 16.632 605.189 18.12 608.045 18.12C610.133 18.12 611.621 17.328 612.389 16.032V18H614.021V10.176C614.021 6.912 612.173 5.28 608.909 5.28ZM608.309 16.776C606.293 16.776 605.117 15.864 605.117 14.4C605.117 13.104 605.909 12.144 608.357 12.144H612.317V14.208C611.645 15.864 610.229 16.776 608.309 16.776ZM625.153 5.28C623.137 5.28 621.409 6.144 620.353 7.776V0.191999H618.649V18H620.281V15.504C621.313 17.208 623.065 18.12 625.153 18.12C628.753 18.12 631.441 15.504 631.441 11.688C631.441 7.872 628.753 5.28 625.153 5.28ZM625.033 16.608C622.345 16.608 620.329 14.64 620.329 11.688C620.329 8.736 622.345 6.768 625.033 6.768C627.697 6.768 629.737 8.736 629.737 11.688C629.737 14.64 627.697 16.608 625.033 16.608ZM635.779 2.616C636.499 2.616 637.027 2.064 637.027 1.368C637.027 0.719999 636.475 0.191999 635.779 0.191999C635.083 0.191999 634.531 0.743999 634.531 1.392C634.531 2.064 635.083 2.616 635.779 2.616ZM634.915 18H636.619V5.376H634.915V18ZM641.36 18H643.064V0.191999H641.36V18ZM648.67 2.616C649.39 2.616 649.918 2.064 649.918 1.368C649.918 0.719999 649.366 0.191999 648.67 0.191999C647.974 0.191999 647.422 0.743999 647.422 1.392C647.422 2.064 647.974 2.616 648.67 2.616ZM647.806 18H649.51V5.376H647.806V18ZM660.299 16.008C659.819 16.44 659.123 16.656 658.427 16.656C657.011 16.656 656.243 15.84 656.243 14.352V6.816H660.083V5.376H656.243V2.616H654.539V5.376H652.283V6.816H654.539V14.448C654.539 16.776 655.859 18.12 658.235 18.12C659.219 18.12 660.227 17.832 660.899 17.232L660.299 16.008ZM672.46 0.456H670.18L666.892 3.432H668.572L672.46 0.456ZM674.572 11.688C674.572 7.896 672.004 5.28 668.452 5.28C664.9 5.28 662.284 7.944 662.284 11.688C662.284 15.432 664.972 18.12 668.908 18.12C670.9 18.12 672.652 17.4 673.78 16.056L672.82 14.952C671.86 16.056 670.492 16.608 668.956 16.608C666.196 16.608 664.18 14.856 663.988 12.216H674.548C674.548 12.024 674.572 11.832 674.572 11.688ZM668.452 6.744C670.924 6.744 672.724 8.472 672.94 10.944H663.988C664.204 8.472 666.004 6.744 668.452 6.744ZM690.369 16.008C689.889 16.44 689.193 16.656 688.497 16.656C687.081 16.656 686.313 15.84 686.313 14.352V6.816H690.153V5.376H686.313V2.616H684.609V5.376H682.353V6.816H684.609V14.448C684.609 16.776 685.929 18.12 688.305 18.12C689.289 18.12 690.297 17.832 690.969 17.232L690.369 16.008ZM698.786 18.12C702.482 18.12 705.194 15.432 705.194 11.688C705.194 7.944 702.482 5.28 698.786 5.28C695.09 5.28 692.354 7.944 692.354 11.688C692.354 15.432 695.09 18.12 698.786 18.12ZM698.786 16.608C696.098 16.608 694.082 14.64 694.082 11.688C694.082 8.736 696.098 6.768 698.786 6.768C701.474 6.768 703.466 8.736 703.466 11.688C703.466 14.64 701.474 16.608 698.786 16.608ZM714.721 16.008C714.241 16.44 713.545 16.656 712.849 16.656C711.433 16.656 710.665 15.84 710.665 14.352V6.816H714.505V5.376H710.665V2.616H708.961V5.376H706.705V6.816H708.961V14.448C708.961 16.776 710.281 18.12 712.657 18.12C713.641 18.12 714.649 17.832 715.321 17.232L714.721 16.008ZM722.839 5.28C720.847 5.28 718.975 5.904 717.703 6.984L718.471 8.256C719.503 7.344 721.039 6.768 722.671 6.768C725.023 6.768 726.247 7.944 726.247 10.104V10.872H722.239C718.615 10.872 717.367 12.504 717.367 14.448C717.367 16.632 719.119 18.12 721.975 18.12C724.063 18.12 725.551 17.328 726.319 16.032V18H727.951V10.176C727.951 6.912 726.103 5.28 722.839 5.28ZM722.239 16.776C720.223 16.776 719.047 15.864 719.047 14.4C719.047 13.104 719.839 12.144 722.287 12.144H726.247V14.208C725.575 15.864 724.159 16.776 722.239 16.776ZM732.579 18H734.283V0.191999H732.579V18ZM750.04 11.688C750.04 7.896 747.472 5.28 743.92 5.28C740.368 5.28 737.752 7.944 737.752 11.688C737.752 15.432 740.44 18.12 744.376 18.12C746.368 18.12 748.12 17.4 749.248 16.056L748.288 14.952C747.328 16.056 745.96 16.608 744.424 16.608C741.664 16.608 739.648 14.856 739.456 12.216H750.016C750.016 12.024 750.04 11.832 750.04 11.688ZM743.92 6.744C746.392 6.744 748.192 8.472 748.408 10.944H739.456C739.672 8.472 741.472 6.744 743.92 6.744ZM753.677 18.12C754.373 18.12 754.973 17.544 754.973 16.8C754.973 16.056 754.373 15.504 753.677 15.504C752.981 15.504 752.405 16.056 752.405 16.8C752.405 17.544 752.981 18.12 753.677 18.12ZM765.236 18H776.42V16.464H767.012V1.2H765.236V18ZM789.837 11.688C789.837 7.896 787.269 5.28 783.717 5.28C780.165 5.28 777.549 7.944 777.549 11.688C777.549 15.432 780.237 18.12 784.173 18.12C786.165 18.12 787.917 17.4 789.045 16.056L788.085 14.952C787.125 16.056 785.757 16.608 784.221 16.608C781.461 16.608 779.445 14.856 779.253 12.216H789.813C789.813 12.024 789.837 11.832 789.837 11.688ZM783.717 6.744C786.189 6.744 787.989 8.472 788.205 10.944H779.253C779.469 8.472 781.269 6.744 783.717 6.744ZM796.69 18.12C799.978 18.12 801.898 16.704 801.898 14.52C801.898 9.672 793.714 12.24 793.714 8.832C793.714 7.632 794.722 6.744 797.002 6.744C798.298 6.744 799.618 7.056 800.722 7.824L801.466 6.456C800.41 5.736 798.634 5.28 797.002 5.28C793.786 5.28 792.01 6.816 792.01 8.88C792.01 13.872 800.194 11.28 800.194 14.568C800.194 15.816 799.21 16.632 796.81 16.632C795.034 16.632 793.33 16.008 792.322 15.216L791.554 16.56C792.586 17.448 794.602 18.12 796.69 18.12ZM817.833 5.28C815.745 5.28 813.993 6.192 812.961 7.872V5.376H811.329V22.656H813.033V15.624C814.089 17.256 815.817 18.12 817.833 18.12C821.433 18.12 824.121 15.528 824.121 11.688C824.121 7.872 821.433 5.28 817.833 5.28ZM817.713 16.608C815.025 16.608 813.009 14.64 813.009 11.688C813.009 8.76 815.025 6.768 817.713 6.768C820.377 6.768 822.417 8.76 822.417 11.688C822.417 14.64 820.377 16.608 817.713 16.608ZM834.027 5.28C831.891 5.28 830.235 6.12 829.299 7.584V0.191999H827.595V18H829.299V11.376C829.299 8.496 831.003 6.816 833.715 6.816C836.115 6.816 837.507 8.184 837.507 10.848V18H839.211V10.68C839.211 7.056 837.099 5.28 834.027 5.28ZM849.044 18.12C852.74 18.12 855.452 15.432 855.452 11.688C855.452 7.944 852.74 5.28 849.044 5.28C845.348 5.28 842.612 7.944 842.612 11.688C842.612 15.432 845.348 18.12 849.044 18.12ZM849.044 16.608C846.356 16.608 844.34 14.64 844.34 11.688C844.34 8.736 846.356 6.768 849.044 6.768C851.732 6.768 853.724 8.736 853.724 11.688C853.724 14.64 851.732 16.608 849.044 16.608ZM864.979 16.008C864.499 16.44 863.803 16.656 863.107 16.656C861.691 16.656 860.923 15.84 860.923 14.352V6.816H864.763V5.376H860.923V2.616H859.219V5.376H856.963V6.816H859.219V14.448C859.219 16.776 860.539 18.12 862.915 18.12C863.899 18.12 864.907 17.832 865.579 17.232L864.979 16.008ZM873.395 18.12C877.091 18.12 879.803 15.432 879.803 11.688C879.803 7.944 877.091 5.28 873.395 5.28C869.699 5.28 866.963 7.944 866.963 11.688C866.963 15.432 869.699 18.12 873.395 18.12ZM873.395 16.608C870.707 16.608 868.691 14.64 868.691 11.688C868.691 8.736 870.707 6.768 873.395 6.768C876.083 6.768 878.075 8.736 878.075 11.688C878.075 14.64 876.083 16.608 873.395 16.608ZM886.666 18.12C889.954 18.12 891.874 16.704 891.874 14.52C891.874 9.672 883.69 12.24 883.69 8.832C883.69 7.632 884.698 6.744 886.978 6.744C888.274 6.744 889.594 7.056 890.698 7.824L891.442 6.456C890.386 5.736 888.61 5.28 886.978 5.28C883.762 5.28 881.986 6.816 881.986 8.88C881.986 13.872 890.17 11.28 890.17 14.568C890.17 15.816 889.186 16.632 886.786 16.632C885.01 16.632 883.306 16.008 882.298 15.216L881.53 16.56C882.562 17.448 884.578 18.12 886.666 18.12ZM904.69 18.12C907.978 18.12 909.898 16.704 909.898 14.52C909.898 9.672 901.714 12.24 901.714 8.832C901.714 7.632 902.722 6.744 905.002 6.744C906.298 6.744 907.618 7.056 908.722 7.824L909.466 6.456C908.41 5.736 906.634 5.28 905.002 5.28C901.786 5.28 900.01 6.816 900.01 8.88C900.01 13.872 908.194 11.28 908.194 14.568C908.194 15.816 907.21 16.632 904.81 16.632C903.034 16.632 901.33 16.008 900.322 15.216L899.554 16.56C900.586 17.448 902.602 18.12 904.69 18.12ZM918.208 18.12C921.904 18.12 924.616 15.432 924.616 11.688C924.616 7.944 921.904 5.28 918.208 5.28C914.512 5.28 911.776 7.944 911.776 11.688C911.776 15.432 914.512 18.12 918.208 18.12ZM918.208 16.608C915.52 16.608 913.504 14.64 913.504 11.688C913.504 8.736 915.52 6.768 918.208 6.768C920.896 6.768 922.888 8.736 922.888 11.688C922.888 14.64 920.896 16.608 918.208 16.608ZM934.527 5.28C932.343 5.28 930.639 6.168 929.727 7.704V5.376H928.095V18H929.799V11.376C929.799 8.496 931.503 6.816 934.215 6.816C936.615 6.816 938.007 8.184 938.007 10.848V18H939.711V10.68C939.711 7.056 937.599 5.28 934.527 5.28ZM950.385 16.008C949.905 16.44 949.209 16.656 948.513 16.656C947.097 16.656 946.329 15.84 946.329 14.352V6.816H950.169V5.376H946.329V2.616H944.625V5.376H942.369V6.816H944.625V14.448C944.625 16.776 945.945 18.12 948.321 18.12C949.305 18.12 950.313 17.832 950.985 17.232L950.385 16.008ZM6.608 52.12C8.744 52.12 10.544 51.256 11.552 49.624L10.28 48.76C9.416 50.032 8.072 50.608 6.608 50.608C3.848 50.608 1.832 48.664 1.832 45.688C1.832 42.736 3.848 40.768 6.608 40.768C8.072 40.768 9.416 41.368 10.28 42.64L11.552 41.776C10.544 40.12 8.744 39.28 6.608 39.28C2.84 39.28 0.104 41.92 0.104 45.688C0.104 49.456 2.84 52.12 6.608 52.12ZM19.8485 52.12C23.5445 52.12 26.2565 49.432 26.2565 45.688C26.2565 41.944 23.5445 39.28 19.8485 39.28C16.1525 39.28 13.4165 41.944 13.4165 45.688C13.4165 49.432 16.1525 52.12 19.8485 52.12ZM19.8485 50.608C17.1605 50.608 15.1445 48.64 15.1445 45.688C15.1445 42.736 17.1605 40.768 19.8485 40.768C22.5365 40.768 24.5285 42.736 24.5285 45.688C24.5285 48.64 22.5365 50.608 19.8485 50.608ZM36.1674 39.28C33.9834 39.28 32.2794 40.168 31.3674 41.704V39.376H29.7354V52H31.4394V45.376C31.4394 42.496 33.1434 40.816 35.8554 40.816C38.2554 40.816 39.6474 42.184 39.6474 44.848V52H41.3514V44.68C41.3514 41.056 39.2394 39.28 36.1674 39.28ZM50.1536 35.512C50.8736 35.512 51.5456 35.728 52.0256 36.136L52.6016 34.864C51.9776 34.336 51.0176 34.072 50.0816 34.072C47.6096 34.072 46.2656 35.56 46.2656 37.816V39.376H44.0096V40.816H46.2656V52H47.9696V40.816H51.8096V39.376H47.9216V37.888C47.9216 36.328 48.6896 35.512 50.1536 35.512ZM59.0594 52.12C62.7554 52.12 65.4674 49.432 65.4674 45.688C65.4674 41.944 62.7554 39.28 59.0594 39.28C55.3634 39.28 52.6274 41.944 52.6274 45.688C52.6274 49.432 55.3634 52.12 59.0594 52.12ZM59.0594 50.608C56.3714 50.608 54.3554 48.64 54.3554 45.688C54.3554 42.736 56.3714 40.768 59.0594 40.768C61.7474 40.768 63.7394 42.736 63.7394 45.688C63.7394 48.64 61.7474 50.608 59.0594 50.608ZM70.5783 41.848V39.376H68.9463V52H70.6503V45.568C70.6503 42.592 72.2583 40.912 74.8983 40.912C75.0183 40.912 75.1623 40.936 75.3063 40.936V39.28C72.9783 39.28 71.3703 40.168 70.5783 41.848ZM94.1356 39.28C91.8556 39.28 90.0556 40.312 89.1436 41.944C88.3756 40.168 86.7436 39.28 84.6556 39.28C82.5436 39.28 80.9116 40.168 80.0236 41.68V39.376H78.3916V52H80.0956V45.376C80.0956 42.496 81.7516 40.816 84.3196 40.816C86.6236 40.816 87.9676 42.184 87.9676 44.848V52H89.6716V45.376C89.6716 42.496 91.3036 40.816 93.8956 40.816C96.1756 40.816 97.5196 42.184 97.5196 44.848V52H99.2236V44.68C99.2236 41.056 97.2076 39.28 94.1356 39.28ZM114.908 45.688C114.908 41.896 112.34 39.28 108.788 39.28C105.236 39.28 102.62 41.944 102.62 45.688C102.62 49.432 105.308 52.12 109.244 52.12C111.236 52.12 112.988 51.4 114.116 50.056L113.156 48.952C112.196 50.056 110.828 50.608 109.292 50.608C106.532 50.608 104.516 48.856 104.324 46.216H114.884C114.884 46.024 114.908 45.832 114.908 45.688ZM108.788 40.744C111.26 40.744 113.06 42.472 113.276 44.944H104.324C104.54 42.472 106.34 40.744 108.788 40.744ZM121.76 52.12C125.048 52.12 126.968 50.704 126.968 48.52C126.968 43.672 118.784 46.24 118.784 42.832C118.784 41.632 119.792 40.744 122.072 40.744C123.368 40.744 124.688 41.056 125.792 41.824L126.536 40.456C125.48 39.736 123.704 39.28 122.072 39.28C118.856 39.28 117.08 40.816 117.08 42.88C117.08 47.872 125.264 45.28 125.264 48.568C125.264 49.816 124.28 50.632 121.88 50.632C120.104 50.632 118.4 50.008 117.392 49.216L116.624 50.56C117.656 51.448 119.672 52.12 121.76 52.12ZM140.815 39.28C138.823 39.28 136.951 39.904 135.679 40.984L136.447 42.256C137.479 41.344 139.015 40.768 140.647 40.768C142.999 40.768 144.223 41.944 144.223 44.104V44.872H140.215C136.591 44.872 135.343 46.504 135.343 48.448C135.343 50.632 137.095 52.12 139.951 52.12C142.039 52.12 143.527 51.328 144.295 50.032V52H145.927V44.176C145.927 40.912 144.079 39.28 140.815 39.28ZM140.215 50.776C138.199 50.776 137.023 49.864 137.023 48.4C137.023 47.104 137.815 46.144 140.263 46.144H144.223V48.208C143.551 49.864 142.135 50.776 140.215 50.776ZM160.228 39.376V46C160.228 48.88 158.572 50.584 155.932 50.584C153.532 50.584 152.14 49.216 152.14 46.528V39.376H150.436V46.696C150.436 50.32 152.548 52.12 155.764 52.12C157.78 52.12 159.412 51.232 160.3 49.696V52H161.932V39.376H160.228ZM176.688 52L171.648 45.52L176.4 39.376H174.528L170.736 44.32L166.944 39.376H165.024L169.776 45.52L164.784 52H166.704L170.736 46.72L174.744 52H176.688ZM185.806 52H187.51V34.192H185.806V52ZM197.411 52.12C201.107 52.12 203.819 49.432 203.819 45.688C203.819 41.944 201.107 39.28 197.411 39.28C193.715 39.28 190.979 41.944 190.979 45.688C190.979 49.432 193.715 52.12 197.411 52.12ZM197.411 50.608C194.723 50.608 192.707 48.64 192.707 45.688C192.707 42.736 194.723 40.768 197.411 40.768C200.099 40.768 202.091 42.736 202.091 45.688C202.091 48.64 200.099 50.608 197.411 50.608ZM217.354 39.376V41.8C216.298 40.144 214.474 39.28 212.362 39.28C208.762 39.28 206.026 41.752 206.026 45.376C206.026 49 208.762 51.52 212.362 51.52C214.426 51.52 216.226 50.68 217.282 49.072V50.68C217.282 53.8 215.818 55.264 212.626 55.264C210.682 55.264 208.858 54.616 207.658 53.536L206.794 54.832C208.114 56.08 210.37 56.776 212.674 56.776C216.85 56.776 218.986 54.808 218.986 50.464V39.376H217.354ZM212.53 50.008C209.746 50.008 207.754 48.112 207.754 45.376C207.754 42.64 209.746 40.768 212.53 40.768C215.314 40.768 217.33 42.64 217.33 45.376C217.33 48.112 215.314 50.008 212.53 50.008ZM234.767 45.688C234.767 41.896 232.199 39.28 228.647 39.28C225.095 39.28 222.479 41.944 222.479 45.688C222.479 49.432 225.167 52.12 229.103 52.12C231.095 52.12 232.847 51.4 233.975 50.056L233.015 48.952C232.055 50.056 230.687 50.608 229.151 50.608C226.391 50.608 224.375 48.856 224.183 46.216H234.743C234.743 46.024 234.767 45.832 234.767 45.688ZM228.647 40.744C231.119 40.744 232.919 42.472 233.135 44.944H224.183C224.399 42.472 226.199 40.744 228.647 40.744ZM253.979 39.28C251.699 39.28 249.899 40.312 248.987 41.944C248.219 40.168 246.587 39.28 244.499 39.28C242.387 39.28 240.755 40.168 239.867 41.68V39.376H238.235V52H239.939V45.376C239.939 42.496 241.595 40.816 244.163 40.816C246.467 40.816 247.811 42.184 247.811 44.848V52H249.515V45.376C249.515 42.496 251.147 40.816 253.739 40.816C256.019 40.816 257.363 42.184 257.363 44.848V52H259.067V44.68C259.067 41.056 257.051 39.28 253.979 39.28ZM274.751 45.688C274.751 41.896 272.183 39.28 268.631 39.28C265.079 39.28 262.463 41.944 262.463 45.688C262.463 49.432 265.151 52.12 269.087 52.12C271.079 52.12 272.831 51.4 273.959 50.056L272.999 48.952C272.039 50.056 270.671 50.608 269.135 50.608C266.375 50.608 264.359 48.856 264.167 46.216H274.727C274.727 46.024 274.751 45.832 274.751 45.688ZM268.631 40.744C271.103 40.744 272.903 42.472 273.119 44.944H264.167C264.383 42.472 266.183 40.744 268.631 40.744ZM284.652 39.28C282.468 39.28 280.764 40.168 279.852 41.704V39.376H278.22V52H279.924V45.376C279.924 42.496 281.628 40.816 284.34 40.816C286.74 40.816 288.132 42.184 288.132 44.848V52H289.836V44.68C289.836 41.056 287.724 39.28 284.652 39.28ZM300.51 50.008C300.03 50.44 299.334 50.656 298.638 50.656C297.222 50.656 296.454 49.84 296.454 48.352V40.816H300.294V39.376H296.454V36.616H294.75V39.376H292.494V40.816H294.75V48.448C294.75 50.776 296.07 52.12 298.446 52.12C299.43 52.12 300.438 51.832 301.11 51.232L300.51 50.008ZM307.596 52.12C310.884 52.12 312.804 50.704 312.804 48.52C312.804 43.672 304.62 46.24 304.62 42.832C304.62 41.632 305.628 40.744 307.908 40.744C309.204 40.744 310.524 41.056 311.628 41.824L312.372 40.456C311.316 39.736 309.54 39.28 307.908 39.28C304.692 39.28 302.916 40.816 302.916 42.88C302.916 47.872 311.1 45.28 311.1 48.568C311.1 49.816 310.116 50.632 307.716 50.632C305.94 50.632 304.236 50.008 303.228 49.216L302.46 50.56C303.492 51.448 305.508 52.12 307.596 52.12ZM316.146 49.504C315.426 49.504 314.874 50.056 314.874 50.8C314.874 51.424 315.234 51.88 315.738 52.024L314.922 55.504H316.074L317.082 52.192C317.322 51.52 317.418 51.208 317.418 50.8C317.418 50.08 316.89 49.504 316.146 49.504ZM338.337 45.688C338.337 41.896 335.769 39.28 332.217 39.28C328.665 39.28 326.049 41.944 326.049 45.688C326.049 49.432 328.737 52.12 332.673 52.12C334.665 52.12 336.417 51.4 337.545 50.056L336.585 48.952C335.625 50.056 334.257 50.608 332.721 50.608C329.961 50.608 327.945 48.856 327.753 46.216H338.313C338.313 46.024 338.337 45.832 338.337 45.688ZM332.217 40.744C334.689 40.744 336.489 42.472 336.705 44.944H327.753C327.969 42.472 329.769 40.744 332.217 40.744ZM347.854 50.008C347.374 50.44 346.678 50.656 345.982 50.656C344.566 50.656 343.798 49.84 343.798 48.352V40.816H347.638V39.376H343.798V36.616H342.094V39.376H339.838V40.816H342.094V48.448C342.094 50.776 343.414 52.12 345.79 52.12C346.774 52.12 347.782 51.832 348.454 51.232L347.854 50.008ZM363.885 50.008C363.405 50.44 362.709 50.656 362.013 50.656C360.597 50.656 359.829 49.84 359.829 48.352V40.816H363.669V39.376H359.829V36.616H358.125V39.376H355.869V40.816H358.125V48.448C358.125 50.776 359.445 52.12 361.821 52.12C362.805 52.12 363.813 51.832 364.485 51.232L363.885 50.008ZM372.302 52.12C375.998 52.12 378.71 49.432 378.71 45.688C378.71 41.944 375.998 39.28 372.302 39.28C368.606 39.28 365.87 41.944 365.87 45.688C365.87 49.432 368.606 52.12 372.302 52.12ZM372.302 50.608C369.614 50.608 367.598 48.64 367.598 45.688C367.598 42.736 369.614 40.768 372.302 40.768C374.99 40.768 376.982 42.736 376.982 45.688C376.982 48.64 374.99 50.608 372.302 50.608ZM391.861 39.376V46C391.861 48.88 390.205 50.584 387.565 50.584C385.165 50.584 383.773 49.216 383.773 46.528V39.376H382.069V46.696C382.069 50.32 384.181 52.12 387.397 52.12C389.413 52.12 391.045 51.232 391.932 49.696V52H393.565V39.376H391.861ZM404.385 50.008C403.905 50.44 403.209 50.656 402.513 50.656C401.097 50.656 400.329 49.84 400.329 48.352V40.816H404.169V39.376H400.329V36.616H398.625V39.376H396.369V40.816H398.625V48.448C398.625 50.776 399.945 52.12 402.321 52.12C403.305 52.12 404.313 51.832 404.985 51.232L404.385 50.008ZM418.658 45.688C418.658 41.896 416.09 39.28 412.538 39.28C408.986 39.28 406.37 41.944 406.37 45.688C406.37 49.432 409.058 52.12 412.994 52.12C414.986 52.12 416.738 51.4 417.866 50.056L416.906 48.952C415.946 50.056 414.578 50.608 413.042 50.608C410.282 50.608 408.266 48.856 408.074 46.216H418.634C418.634 46.024 418.658 45.832 418.658 45.688ZM412.538 40.744C415.01 40.744 416.81 42.472 417.026 44.944H408.074C408.29 42.472 410.09 40.744 412.538 40.744ZM425.51 52.12C428.798 52.12 430.718 50.704 430.718 48.52C430.718 43.672 422.534 46.24 422.534 42.832C422.534 41.632 423.542 40.744 425.822 40.744C427.118 40.744 428.438 41.056 429.542 41.824L430.286 40.456C429.23 39.736 427.454 39.28 425.822 39.28C422.606 39.28 420.83 40.816 420.83 42.88C420.83 47.872 429.014 45.28 429.014 48.568C429.014 49.816 428.03 50.632 425.63 50.632C423.854 50.632 422.15 50.008 421.142 49.216L420.374 50.56C421.406 51.448 423.422 52.12 425.51 52.12ZM440.149 52H441.853V34.192H440.149V52ZM457.611 45.688C457.611 41.896 455.043 39.28 451.491 39.28C447.939 39.28 445.323 41.944 445.323 45.688C445.323 49.432 448.011 52.12 451.947 52.12C453.939 52.12 455.691 51.4 456.819 50.056L455.859 48.952C454.899 50.056 453.531 50.608 451.995 50.608C449.235 50.608 447.219 48.856 447.027 46.216H457.587C457.587 46.024 457.611 45.832 457.611 45.688ZM451.491 40.744C453.963 40.744 455.763 42.472 455.979 44.944H447.027C447.243 42.472 449.043 40.744 451.491 40.744ZM464.463 52.12C467.751 52.12 469.671 50.704 469.671 48.52C469.671 43.672 461.487 46.24 461.487 42.832C461.487 41.632 462.495 40.744 464.775 40.744C466.071 40.744 467.391 41.056 468.495 41.824L469.239 40.456C468.183 39.736 466.407 39.28 464.775 39.28C461.559 39.28 459.783 40.816 459.783 42.88C459.783 47.872 467.967 45.28 467.967 48.568C467.967 49.816 466.983 50.632 464.583 50.632C462.807 50.632 461.103 50.008 460.095 49.216L459.327 50.56C460.359 51.448 462.375 52.12 464.463 52.12ZM479.967 36.616C480.687 36.616 481.215 36.064 481.215 35.368C481.215 34.72 480.663 34.192 479.967 34.192C479.271 34.192 478.719 34.744 478.719 35.392C478.719 36.064 479.271 36.616 479.967 36.616ZM479.103 52H480.807V39.376H479.103V52ZM491.98 39.28C489.796 39.28 488.092 40.168 487.18 41.704V39.376H485.548V52H487.252V45.376C487.252 42.496 488.956 40.816 491.668 40.816C494.068 40.816 495.46 42.184 495.46 44.848V52H497.164V44.68C497.164 41.056 495.052 39.28 491.98 39.28ZM505.966 35.512C506.686 35.512 507.358 35.728 507.838 36.136L508.414 34.864C507.79 34.336 506.83 34.072 505.894 34.072C503.422 34.072 502.078 35.56 502.078 37.816V39.376H499.822V40.816H502.078V52H503.782V40.816H507.622V39.376H503.734V37.888C503.734 36.328 504.502 35.512 505.966 35.512ZM514.872 52.12C518.568 52.12 521.28 49.432 521.28 45.688C521.28 41.944 518.568 39.28 514.872 39.28C511.176 39.28 508.44 41.944 508.44 45.688C508.44 49.432 511.176 52.12 514.872 52.12ZM514.872 50.608C512.184 50.608 510.168 48.64 510.168 45.688C510.168 42.736 512.184 40.768 514.872 40.768C517.56 40.768 519.552 42.736 519.552 45.688C519.552 48.64 517.56 50.608 514.872 50.608ZM526.391 41.848V39.376H524.759V52H526.463V45.568C526.463 42.592 528.071 40.912 530.711 40.912C530.831 40.912 530.975 40.936 531.119 40.936V39.28C528.791 39.28 527.183 40.168 526.391 41.848ZM549.948 39.28C547.668 39.28 545.868 40.312 544.956 41.944C544.188 40.168 542.556 39.28 540.468 39.28C538.356 39.28 536.724 40.168 535.836 41.68V39.376H534.204V52H535.908V45.376C535.908 42.496 537.564 40.816 540.132 40.816C542.436 40.816 543.78 42.184 543.78 44.848V52H545.484V45.376C545.484 42.496 547.116 40.816 549.708 40.816C551.988 40.816 553.332 42.184 553.332 44.848V52H555.036V44.68C555.036 41.056 553.02 39.28 549.948 39.28ZM564.073 39.28C562.081 39.28 560.209 39.904 558.937 40.984L559.705 42.256C560.737 41.344 562.273 40.768 563.905 40.768C566.257 40.768 567.481 41.944 567.481 44.104V44.872H563.473C559.849 44.872 558.601 46.504 558.601 48.448C558.601 50.632 560.353 52.12 563.209 52.12C565.297 52.12 566.785 51.328 567.553 50.032V52H569.185V44.176C569.185 40.912 567.337 39.28 564.073 39.28ZM563.473 50.776C561.457 50.776 560.281 49.864 560.281 48.4C560.281 47.104 561.073 46.144 563.521 46.144H567.481V48.208C566.809 49.864 565.393 50.776 563.473 50.776ZM579.862 50.008C579.382 50.44 578.686 50.656 577.99 50.656C576.574 50.656 575.806 49.84 575.806 48.352V40.816H579.646V39.376H575.806V36.616H574.102V39.376H571.846V40.816H574.102V48.448C574.102 50.776 575.422 52.12 577.798 52.12C578.782 52.12 579.79 51.832 580.462 51.232L579.862 50.008ZM584.428 36.616C585.148 36.616 585.676 36.064 585.676 35.368C585.676 34.72 585.124 34.192 584.428 34.192C583.732 34.192 583.18 34.744 583.18 35.392C583.18 36.064 583.732 36.616 584.428 36.616ZM583.564 52H585.268V39.376H583.564V52ZM595.169 52.12C598.865 52.12 601.577 49.432 601.577 45.688C601.577 41.944 598.865 39.28 595.169 39.28C591.473 39.28 588.737 41.944 588.737 45.688C588.737 49.432 591.473 52.12 595.169 52.12ZM595.169 50.608C592.481 50.608 590.465 48.64 590.465 45.688C590.465 42.736 592.481 40.768 595.169 40.768C597.857 40.768 599.849 42.736 599.849 45.688C599.849 48.64 597.857 50.608 595.169 50.608ZM611.488 39.28C609.304 39.28 607.6 40.168 606.688 41.704V39.376H605.056V52H606.76V45.376C606.76 42.496 608.464 40.816 611.176 40.816C613.576 40.816 614.968 42.184 614.968 44.848V52H616.672V44.68C616.672 41.056 614.56 39.28 611.488 39.28ZM624.682 52.12C627.97 52.12 629.89 50.704 629.89 48.52C629.89 43.672 621.706 46.24 621.706 42.832C621.706 41.632 622.714 40.744 624.994 40.744C626.29 40.744 627.61 41.056 628.714 41.824L629.458 40.456C628.402 39.736 626.626 39.28 624.994 39.28C621.778 39.28 620.002 40.816 620.002 42.88C620.002 47.872 628.186 45.28 628.186 48.568C628.186 49.816 627.202 50.632 624.802 50.632C623.026 50.632 621.322 50.008 620.314 49.216L619.546 50.56C620.578 51.448 622.594 52.12 624.682 52.12ZM642.705 52.12C645.993 52.12 647.913 50.704 647.913 48.52C647.913 43.672 639.729 46.24 639.729 42.832C639.729 41.632 640.737 40.744 643.017 40.744C644.313 40.744 645.633 41.056 646.737 41.824L647.481 40.456C646.425 39.736 644.649 39.28 643.017 39.28C639.801 39.28 638.025 40.816 638.025 42.88C638.025 47.872 646.209 45.28 646.209 48.568C646.209 49.816 645.225 50.632 642.825 50.632C641.049 50.632 639.345 50.008 638.337 49.216L637.569 50.56C638.601 51.448 640.617 52.12 642.705 52.12ZM656.224 52.12C659.92 52.12 662.632 49.432 662.632 45.688C662.632 41.944 659.92 39.28 656.224 39.28C652.528 39.28 649.792 41.944 649.792 45.688C649.792 49.432 652.528 52.12 656.224 52.12ZM656.224 50.608C653.536 50.608 651.52 48.64 651.52 45.688C651.52 42.736 653.536 40.768 656.224 40.768C658.912 40.768 660.904 42.736 660.904 45.688C660.904 48.64 658.912 50.608 656.224 50.608ZM672.542 39.28C670.358 39.28 668.654 40.168 667.742 41.704V39.376H666.11V52H667.814V45.376C667.814 42.496 669.518 40.816 672.23 40.816C674.63 40.816 676.022 42.184 676.022 44.848V52H677.726V44.68C677.726 41.056 675.614 39.28 672.542 39.28ZM688.401 50.008C687.921 50.44 687.225 50.656 686.529 50.656C685.113 50.656 684.345 49.84 684.345 48.352V40.816H688.185V39.376H684.345V36.616H682.641V39.376H680.385V40.816H682.641V48.448C682.641 50.776 683.961 52.12 686.337 52.12C687.321 52.12 688.329 51.832 689.001 51.232L688.401 50.008ZM700.016 41.848V39.376H698.384V52H700.088V45.568C700.088 42.592 701.696 40.912 704.336 40.912C704.456 40.912 704.6 40.936 704.744 40.936V39.28C702.416 39.28 700.808 40.168 700.016 41.848ZM716.616 34.456H714.336L711.048 37.432H712.728L716.616 34.456ZM718.728 45.688C718.728 41.896 716.16 39.28 712.608 39.28C709.056 39.28 706.44 41.944 706.44 45.688C706.44 49.432 709.128 52.12 713.064 52.12C715.056 52.12 716.808 51.4 717.936 50.056L716.976 48.952C716.016 50.056 714.648 50.608 713.112 50.608C710.352 50.608 708.336 48.856 708.144 46.216H718.704C718.704 46.024 718.728 45.832 718.728 45.688ZM712.608 40.744C715.08 40.744 716.88 42.472 717.096 44.944H708.144C708.36 42.472 710.16 40.744 712.608 40.744ZM732.252 39.376V41.8C731.196 40.144 729.372 39.28 727.26 39.28C723.66 39.28 720.924 41.752 720.924 45.376C720.924 49 723.66 51.52 727.26 51.52C729.324 51.52 731.124 50.68 732.18 49.072V50.68C732.18 53.8 730.716 55.264 727.524 55.264C725.58 55.264 723.756 54.616 722.556 53.536L721.692 54.832C723.012 56.08 725.268 56.776 727.572 56.776C731.748 56.776 733.884 54.808 733.884 50.464V39.376H732.252ZM727.428 50.008C724.644 50.008 722.652 48.112 722.652 45.376C722.652 42.64 724.644 40.768 727.428 40.768C730.212 40.768 732.228 42.64 732.228 45.376C732.228 48.112 730.212 50.008 727.428 50.008ZM748.321 39.376V46C748.321 48.88 746.665 50.584 744.025 50.584C741.625 50.584 740.233 49.216 740.233 46.528V39.376H738.529V46.696C738.529 50.32 740.641 52.12 743.857 52.12C745.873 52.12 747.505 51.232 748.393 49.696V52H750.025V39.376H748.321ZM754.798 52H756.502V34.192H754.798V52ZM762.107 36.616C762.827 36.616 763.355 36.064 763.355 35.368C763.355 34.72 762.803 34.192 762.107 34.192C761.411 34.192 760.859 34.744 760.859 35.392C760.859 36.064 761.411 36.616 762.107 36.616ZM761.243 52H762.947V39.376H761.243V52ZM774.145 37.432L770.857 34.456H768.577L772.465 37.432H774.145ZM778.705 45.688C778.705 41.896 776.137 39.28 772.585 39.28C769.033 39.28 766.417 41.944 766.417 45.688C766.417 49.432 769.105 52.12 773.041 52.12C775.033 52.12 776.785 51.4 777.913 50.056L776.953 48.952C775.993 50.056 774.625 50.608 773.089 50.608C770.329 50.608 768.312 48.856 768.121 46.216H778.681C778.681 46.024 778.705 45.832 778.705 45.688ZM772.585 40.744C775.057 40.744 776.857 42.472 777.073 44.944H768.121C768.337 42.472 770.137 40.744 772.585 40.744ZM783.805 41.848V39.376H782.173V52H783.877V45.568C783.877 42.592 785.485 40.912 788.125 40.912C788.245 40.912 788.389 40.936 788.533 40.936V39.28C786.205 39.28 784.597 40.168 783.805 41.848ZM802.517 45.688C802.517 41.896 799.949 39.28 796.397 39.28C792.845 39.28 790.229 41.944 790.229 45.688C790.229 49.432 792.917 52.12 796.853 52.12C798.845 52.12 800.597 51.4 801.725 50.056L800.765 48.952C799.805 50.056 798.437 50.608 796.901 50.608C794.141 50.608 792.125 48.856 791.933 46.216H802.493C802.493 46.024 802.517 45.832 802.517 45.688ZM796.397 40.744C798.869 40.744 800.669 42.472 800.885 44.944H791.933C792.149 42.472 793.949 40.744 796.397 40.744ZM821.729 39.28C819.449 39.28 817.649 40.312 816.737 41.944C815.969 40.168 814.337 39.28 812.249 39.28C810.137 39.28 808.505 40.168 807.617 41.68V39.376H805.985V52H807.689V45.376C807.689 42.496 809.345 40.816 811.913 40.816C814.217 40.816 815.561 42.184 815.561 44.848V52H817.265V45.376C817.265 42.496 818.897 40.816 821.489 40.816C823.769 40.816 825.113 42.184 825.113 44.848V52H826.817V44.68C826.817 41.056 824.801 39.28 821.729 39.28ZM842.501 45.688C842.501 41.896 839.933 39.28 836.381 39.28C832.829 39.28 830.213 41.944 830.213 45.688C830.213 49.432 832.901 52.12 836.837 52.12C838.829 52.12 840.581 51.4 841.709 50.056L840.749 48.952C839.789 50.056 838.421 50.608 836.885 50.608C834.125 50.608 832.109 48.856 831.917 46.216H842.477C842.477 46.024 842.501 45.832 842.501 45.688ZM836.381 40.744C838.853 40.744 840.653 42.472 840.869 44.944H831.917C832.133 42.472 833.933 40.744 836.381 40.744ZM852.402 39.28C850.218 39.28 848.514 40.168 847.602 41.704V39.376H845.97V52H847.674V45.376C847.674 42.496 849.378 40.816 852.09 40.816C854.49 40.816 855.882 42.184 855.882 44.848V52H857.586V44.68C857.586 41.056 855.474 39.28 852.402 39.28ZM868.26 50.008C867.78 50.44 867.084 50.656 866.388 50.656C864.972 50.656 864.204 49.84 864.204 48.352V40.816H868.044V39.376H864.204V36.616H862.5V39.376H860.244V40.816H862.5V48.448C862.5 50.776 863.82 52.12 866.196 52.12C867.18 52.12 868.188 51.832 868.86 51.232L868.26 50.008ZM887.171 39.376L882.395 50.128L877.667 39.376H875.891L881.483 52H883.235L888.851 39.376H887.171ZM899.803 34.456H897.523L894.235 37.432H895.915L899.803 34.456ZM901.915 45.688C901.915 41.896 899.347 39.28 895.795 39.28C892.243 39.28 889.627 41.944 889.627 45.688C889.627 49.432 892.315 52.12 896.251 52.12C898.243 52.12 899.995 51.4 901.123 50.056L900.163 48.952C899.203 50.056 897.835 50.608 896.299 50.608C893.539 50.608 891.523 48.856 891.331 46.216H901.891C901.891 46.024 901.915 45.832 901.915 45.688ZM895.795 40.744C898.267 40.744 900.067 42.472 900.283 44.944H891.331C891.547 42.472 893.347 40.744 895.795 40.744ZM907.016 41.848V39.376H905.384V52H907.088V45.568C907.088 42.592 908.696 40.912 911.336 40.912C911.456 40.912 911.6 40.936 911.744 40.936V39.28C909.416 39.28 907.808 40.168 907.016 41.848ZM915.693 36.616C916.413 36.616 916.941 36.064 916.941 35.368C916.941 34.72 916.389 34.192 915.693 34.192C914.997 34.192 914.445 34.744 914.445 35.392C914.445 36.064 914.997 36.616 915.693 36.616ZM914.829 52H916.533V39.376H914.829V52ZM921.562 37.816V39.376H919.306V40.816H921.562V52H923.266V40.816H927.106V39.376H923.218V37.888C923.218 36.328 923.986 35.512 925.45 35.512C926.17 35.512 926.842 35.728 927.322 36.136L927.898 34.864C927.274 34.336 926.314 34.072 925.378 34.072C922.906 34.072 921.562 35.56 921.562 37.816ZM932.194 34.192C931.498 34.192 930.946 34.744 930.946 35.392C930.946 36.064 931.498 36.616 932.194 36.616C932.914 36.616 933.442 36.064 933.442 35.368C933.442 34.72 932.89 34.192 932.194 34.192ZM931.33 52H933.034V39.376H931.33V52ZM946.702 34.456H944.422L941.134 37.432H942.814L946.702 34.456ZM948.814 45.688C948.814 41.896 946.246 39.28 942.694 39.28C939.142 39.28 936.526 41.944 936.526 45.688C936.526 49.432 939.214 52.12 943.15 52.12C945.142 52.12 946.894 51.4 948.022 50.056L947.062 48.952C946.102 50.056 944.734 50.608 943.198 50.608C940.438 50.608 938.422 48.856 938.23 46.216H948.79C948.79 46.024 948.814 45.832 948.814 45.688ZM942.694 40.744C945.166 40.744 946.966 42.472 947.182 44.944H938.23C938.446 42.472 940.246 40.744 942.694 40.744ZM963.298 45.688C963.298 41.896 960.73 39.28 957.178 39.28C953.626 39.28 951.01 41.944 951.01 45.688C951.01 49.432 953.698 52.12 957.634 52.12C959.626 52.12 961.378 51.4 962.506 50.056L961.546 48.952C960.586 50.056 959.218 50.608 957.682 50.608C954.922 50.608 952.906 48.856 952.714 46.216H963.274C963.274 46.024 963.298 45.832 963.298 45.688ZM957.178 40.744C959.65 40.744 961.45 42.472 961.666 44.944H952.714C952.93 42.472 954.73 40.744 957.178 40.744ZM970.151 52.12C973.439 52.12 975.359 50.704 975.359 48.52C975.359 43.672 967.175 46.24 967.175 42.832C967.175 41.632 968.183 40.744 970.463 40.744C971.759 40.744 973.079 41.056 974.183 41.824L974.927 40.456C973.871 39.736 972.095 39.28 970.463 39.28C967.247 39.28 965.471 40.816 965.471 42.88C965.471 47.872 973.655 45.28 973.655 48.568C973.655 49.816 972.671 50.632 970.271 50.632C968.495 50.632 966.791 50.008 965.783 49.216L965.015 50.56C966.047 51.448 968.063 52.12 970.151 52.12ZM7.88 73.28C5.792 73.28 4.04 74.192 3.008 75.872V73.376H1.376V90.656H3.08V83.624C4.136 85.256 5.864 86.12 7.88 86.12C11.48 86.12 14.168 83.528 14.168 79.688C14.168 75.872 11.48 73.28 7.88 73.28ZM7.76 84.608C5.072 84.608 3.056 82.64 3.056 79.688C3.056 76.76 5.072 74.768 7.76 74.768C10.424 74.768 12.464 76.76 12.464 79.688C12.464 82.64 10.424 84.608 7.76 84.608ZM21.9873 73.28C19.9953 73.28 18.1233 73.904 16.8513 74.984L17.6193 76.256C18.6513 75.344 20.1873 74.768 21.8193 74.768C24.1713 74.768 25.3953 75.944 25.3953 78.104V78.872H21.3873C17.7633 78.872 16.5153 80.504 16.5153 82.448C16.5153 84.632 18.2673 86.12 21.1233 86.12C23.2113 86.12 24.6993 85.328 25.4673 84.032V86H27.0993V78.176C27.0993 74.912 25.2513 73.28 21.9873 73.28ZM21.3873 84.776C19.3713 84.776 18.1953 83.864 18.1953 82.4C18.1953 81.104 18.9873 80.144 21.4353 80.144H25.3953V82.208C24.7233 83.864 23.3073 84.776 21.3873 84.776ZM33.3596 75.848V73.376H31.7276V86H33.4316V79.568C33.4316 76.592 35.0396 74.912 37.6796 74.912C37.7996 74.912 37.9436 74.936 38.0876 74.936V73.28C35.7596 73.28 34.1516 74.168 33.3596 75.848ZM54.0736 73.28C51.8896 73.28 50.1856 74.168 49.2736 75.704V73.376H47.6416V86H49.3456V79.376C49.3456 76.496 51.0496 74.816 53.7616 74.816C56.1616 74.816 57.5536 76.184 57.5536 78.848V86H59.2576V78.68C59.2576 75.056 57.1456 73.28 54.0736 73.28ZM69.0907 86.12C72.7867 86.12 75.4987 83.432 75.4987 79.688C75.4987 75.944 72.7867 73.28 69.0907 73.28C65.3947 73.28 62.6587 75.944 62.6587 79.688C62.6587 83.432 65.3947 86.12 69.0907 86.12ZM69.0907 84.608C66.4027 84.608 64.3867 82.64 64.3867 79.688C64.3867 76.736 66.4027 74.768 69.0907 74.768C71.7787 74.768 73.7707 76.736 73.7707 79.688C73.7707 82.64 71.7787 84.608 69.0907 84.608ZM82.3616 86.12C85.6496 86.12 87.5696 84.704 87.5696 82.52C87.5696 77.672 79.3856 80.24 79.3856 76.832C79.3856 75.632 80.3936 74.744 82.6736 74.744C83.9696 74.744 85.2896 75.056 86.3936 75.824L87.1376 74.456C86.0816 73.736 84.3056 73.28 82.6736 73.28C79.4576 73.28 77.6816 74.816 77.6816 76.88C77.6816 81.872 85.8656 79.28 85.8656 82.568C85.8656 83.816 84.8816 84.632 82.4816 84.632C80.7056 84.632 79.0016 84.008 77.9936 83.216L77.2256 84.56C78.2576 85.448 80.2736 86.12 82.3616 86.12ZM105.905 68.456H103.625L100.337 71.432H102.017L105.905 68.456ZM108.017 79.688C108.017 75.896 105.449 73.28 101.897 73.28C98.345 73.28 95.729 75.944 95.729 79.688C95.729 83.432 98.417 86.12 102.353 86.12C104.345 86.12 106.097 85.4 107.225 84.056L106.265 82.952C105.305 84.056 103.937 84.608 102.401 84.608C99.641 84.608 97.625 82.856 97.433 80.216H107.993C107.993 80.024 108.017 79.832 108.017 79.688ZM101.897 74.744C104.369 74.744 106.169 76.472 106.385 78.944H97.433C97.649 76.472 99.449 74.744 101.897 74.744ZM121.373 73.376V75.872C120.341 74.192 118.589 73.28 116.501 73.28C112.901 73.28 110.213 75.872 110.213 79.688C110.213 83.528 112.901 86.12 116.501 86.12C118.517 86.12 120.245 85.256 121.301 83.624V90.656H123.005V73.376H121.373ZM116.645 84.608C113.957 84.608 111.941 82.64 111.941 79.688C111.941 76.76 113.957 74.768 116.645 74.768C119.309 74.768 121.325 76.76 121.325 79.688C121.325 82.64 119.309 84.608 116.645 84.608ZM137.423 73.376V80C137.423 82.88 135.767 84.584 133.127 84.584C130.727 84.584 129.335 83.216 129.335 80.528V73.376H127.631V80.696C127.631 84.32 129.743 86.12 132.959 86.12C134.975 86.12 136.607 85.232 137.495 83.696V86H139.127V73.376H137.423ZM144.763 70.616C145.483 70.616 146.011 70.064 146.011 69.368C146.011 68.72 145.459 68.192 144.763 68.192C144.067 68.192 143.515 68.744 143.515 69.392C143.515 70.064 144.067 70.616 144.763 70.616ZM143.899 86H145.603V73.376H143.899V86ZM156.849 73.28C154.761 73.28 153.009 74.192 151.977 75.872V73.376H150.345V90.656H152.049V83.624C153.105 85.256 154.833 86.12 156.849 86.12C160.449 86.12 163.137 83.528 163.137 79.688C163.137 75.872 160.449 73.28 156.849 73.28ZM156.729 84.608C154.041 84.608 152.025 82.64 152.025 79.688C152.025 76.76 154.041 74.768 156.729 74.768C159.393 74.768 161.433 76.76 161.433 79.688C161.433 82.64 159.393 84.608 156.729 84.608ZM177.626 79.688C177.626 75.896 175.058 73.28 171.506 73.28C167.954 73.28 165.338 75.944 165.338 79.688C165.338 83.432 168.026 86.12 171.962 86.12C173.954 86.12 175.706 85.4 176.834 84.056L175.874 82.952C174.914 84.056 173.546 84.608 172.01 84.608C169.25 84.608 167.234 82.856 167.042 80.216H177.602C177.602 80.024 177.626 79.832 177.626 79.688ZM171.506 74.744C173.978 74.744 175.778 76.472 175.994 78.944H167.042C167.258 76.472 169.058 74.744 171.506 74.744ZM184.479 86.12C187.767 86.12 189.687 84.704 189.687 82.52C189.687 77.672 181.503 80.24 181.503 76.832C181.503 75.632 182.511 74.744 184.791 74.744C186.087 74.744 187.407 75.056 188.511 75.824L189.255 74.456C188.199 73.736 186.423 73.28 184.791 73.28C181.575 73.28 179.799 74.816 179.799 76.88C179.799 81.872 187.983 79.28 187.983 82.568C187.983 83.816 186.999 84.632 184.599 84.632C182.823 84.632 181.119 84.008 180.111 83.216L179.343 84.56C180.375 85.448 182.391 86.12 184.479 86.12ZM193.005 86.12C193.701 86.12 194.301 85.544 194.301 84.8C194.301 84.056 193.701 83.504 193.005 83.504C192.309 83.504 191.733 84.056 191.733 84.8C191.733 85.544 192.309 86.12 193.005 86.12Z" fill="#FF6060"/>
</svg>
